<svg width="50" height="50" viewBox="0 0 50 50" fill="none" xmlns="http://www.w3.org/2000/svg">
<path d="M22.4048 7.20582C23.9002 5.93139 26.0998 5.93139 27.5952 7.20582L30.1389 9.37352C30.7797 9.91964 31.5765 10.2497 32.4158 10.3167L35.7473 10.5825C37.7059 10.7388 39.2612 12.2941 39.4175 14.2527L39.6833 17.5842C39.7503 18.4235 40.0804 19.2203 40.6265 19.8611L42.7942 22.4048C44.0686 23.9002 44.0686 26.0998 42.7942 27.5952L40.6265 30.1389C40.0804 30.7797 39.7503 31.5765 39.6833 32.4158L39.4175 35.7473C39.2612 37.7059 37.7059 39.2612 35.7473 39.4175L32.4158 39.6833C31.5765 39.7503 30.7797 40.0804 30.1389 40.6265L27.5952 42.7942C26.0998 44.0686 23.9002 44.0686 22.4048 42.7942L19.8611 40.6265C19.2203 40.0804 18.4235 39.7503 17.5842 39.6833L14.2527 39.4175C12.2941 39.2612 10.7388 37.7059 10.5825 35.7473L10.3167 32.4158C10.2497 31.5765 9.91964 30.7797 9.37352 30.1389L7.20582 27.5952C5.93139 26.0998 5.93139 23.9002 7.20582 22.4048L9.37352 19.8611C9.91964 19.2203 10.2497 18.4235 10.3167 17.5842L10.5825 14.2527C10.7388 12.2941 12.2941 10.7388 14.2527 10.5825L17.5842 10.3167C18.4235 10.2497 19.2203 9.91964 19.8611 9.37352L22.4048 7.20582Z" stroke="#5FCE92" stroke-width="4" stroke-linecap="round" stroke-linejoin="round"/>
<path d="M32.6642 22.2475C33.4453 21.4664 33.4453 20.2001 32.6642 19.419C31.8832 18.638 30.6168 18.638 29.8358 19.419L32.6642 22.2475ZM22.9167 29.1666L21.5025 30.5808C21.8775 30.9559 22.3862 31.1666 22.9167 31.1666C23.4471 31.1666 23.9558 30.9559 24.3309 30.5808L22.9167 29.1666ZM20.1642 23.5857C19.3832 22.8047 18.1168 22.8047 17.3358 23.5857C16.5547 24.3668 16.5547 25.6331 17.3358 26.4141L20.1642 23.5857ZM29.8358 19.419L21.5025 27.7524L24.3309 30.5808L32.6642 22.2475L29.8358 19.419ZM24.3309 27.7524L20.1642 23.5857L17.3358 26.4141L21.5025 30.5808L24.3309 27.7524Z" fill="#5FCE92"/>
</svg>
