<svg xmlns="http://www.w3.org/2000/svg" width="240" height="240" viewBox="0 0 240 240" fill="none">
<path d="M86.6483 113.475C89.5183 109.59 90.5333 107.35 90.5333 104.27C90.5333 99.02 86.4033 94.96 80.8733 94.96C75.4133 94.96 71.3533 98.775 71.3533 104.235C71.3533 109.415 74.9233 113.125 80.2083 113.125C80.8383 113.125 81.5033 113.02 82.1333 112.845L76.0083 121H81.1183L86.6483 113.475ZM85.9483 104.235C85.9483 107.315 83.9183 109.45 80.8733 109.45C77.9333 109.45 75.8683 107.315 75.8683 104.235C75.8683 101.12 77.9333 98.95 80.8733 98.95C83.8833 98.95 85.9483 101.12 85.9483 104.235ZM95.6077 121.42C97.1477 121.42 98.4427 120.16 98.4427 118.655C98.4427 117.115 97.1477 115.855 95.6077 115.855C94.0677 115.855 92.7727 117.115 92.7727 118.655C92.7727 120.16 94.0677 121.42 95.6077 121.42ZM99.9037 95.415V99.545H113.799L104.349 121H109.004L118.279 99.545V95.415H99.9037ZM119.753 121L129.763 95.45H125.493L115.518 121H119.753ZM137.074 99.44V121H141.379V95.415H131.474V99.44H137.074ZM145.734 108.26C145.734 116.17 149.759 121.455 156.549 121.455C163.339 121.455 167.399 116.17 167.399 108.26C167.399 100.315 163.094 94.925 156.549 94.925C150.004 94.925 145.734 100.315 145.734 108.26ZM150.144 108.26C150.144 102.205 152.524 98.88 156.549 98.88C160.609 98.88 162.989 102.205 162.989 108.26C162.989 114.175 160.609 117.5 156.549 117.5C152.524 117.5 150.144 114.175 150.144 108.26Z" fill="#5FCE92" style="transform: translateY(10px);"/>
<path d="M80.885 141.57C82.415 141.57 83.135 142.38 83.135 143.49C83.135 144.705 82.34 145.485 81.14 145.485C79.97 145.485 79.19 144.765 79.19 143.505H77.3C77.3 145.875 78.965 147.195 81.11 147.195C83.33 147.195 85.085 145.77 85.085 143.52C85.085 141.585 83.78 140.355 82.1 140.025L84.77 137.565V136.035H77.81V137.73H82.37L79.55 140.325V141.57H80.885ZM90.4973 141.57C92.0273 141.57 92.7473 142.38 92.7473 143.49C92.7473 144.705 91.9523 145.485 90.7523 145.485C89.5823 145.485 88.8023 144.765 88.8023 143.505H86.9123C86.9123 145.875 88.5773 147.195 90.7223 147.195C92.9423 147.195 94.6973 145.77 94.6973 143.52C94.6973 141.585 93.3923 140.355 91.7123 140.025L94.3823 137.565V136.035H87.4223V137.73H91.9823L89.1623 140.325V141.57H90.4973ZM98.1073 139.26C96.8773 140.925 96.4423 141.885 96.4423 143.205C96.4423 145.455 98.2123 147.195 100.582 147.195C102.922 147.195 104.662 145.56 104.662 143.22C104.662 141 103.132 139.41 100.867 139.41C100.597 139.41 100.312 139.455 100.042 139.53L102.667 136.035H100.477L98.1073 139.26ZM98.4073 143.22C98.4073 141.9 99.2773 140.985 100.582 140.985C101.842 140.985 102.727 141.9 102.727 143.22C102.727 144.555 101.827 145.485 100.582 145.485C99.2923 145.485 98.4073 144.555 98.4073 143.22ZM115.037 147H117.017L121.097 136.035H119.102L116.732 142.35C116.522 142.905 116.297 143.58 116.027 144.54C115.787 143.655 115.577 143.01 115.337 142.35L112.937 136.035H110.897L115.037 147ZM132.678 141.51C132.678 138.165 130.488 135.84 127.353 135.84C124.218 135.84 122.043 138.18 122.043 141.51C122.043 144.855 124.203 147.18 127.338 147.18C130.488 147.18 132.678 144.84 132.678 141.51ZM130.653 141.51C130.653 143.82 129.363 145.335 127.353 145.335C125.343 145.335 124.053 143.85 124.053 141.51C124.053 139.17 125.343 137.685 127.353 137.685C129.363 137.685 130.653 139.17 130.653 141.51ZM133.874 137.805H137.084V147H139.004V137.805H142.214V136.035H133.874V137.805ZM151.242 147V145.23H146.352V142.32H150.732V140.625H146.352V137.805H151.242V136.035H144.432V147H151.242ZM153.443 139.095C153.443 140.775 154.418 141.84 156.278 142.245L158.018 142.635C158.918 142.83 159.293 143.265 159.293 144C159.293 144.915 158.483 145.47 157.208 145.47C155.978 145.47 155.228 144.915 155.213 143.985H153.293C153.338 145.95 154.868 147.195 157.208 147.195C159.623 147.195 161.213 145.875 161.213 143.835C161.213 142.2 160.298 141.24 158.423 140.835L156.698 140.46C155.783 140.25 155.363 139.815 155.363 139.035C155.363 138.12 156.128 137.55 157.313 137.55C158.393 137.55 159.068 138.105 159.113 139.05H161.033C160.973 137.07 159.563 135.84 157.343 135.84C155.033 135.84 153.443 137.175 153.443 139.095Z" fill="#0D1329" style="stroke: white;fill: white;"/>
<path d="M196.077 76.0769C171.819 34.0608 118.093 19.665 76.077 43.923C34.0609 68.181 19.6652 121.907 43.9232 163.923C68.1812 205.939 121.907 220.335 163.923 196.077C198.792 175.945 214.638 135.519 205.155 98.3332" stroke="#D4F8F1" stroke-width="8" stroke-linecap="round"/>
<path d="M120 32C71.3989 32 32 71.3989 32 120C32 168.601 71.3989 208 120 208C168.601 208 208 168.601 208 120C208 79.6666 180.865 45.6708 143.855 35.2718" stroke="#5FCE92" stroke-width="8" stroke-linecap="round"/>
</svg>