<svg width="240" height="240" viewBox="0 0 240 240" fill="none" xmlns="http://www.w3.org/2000/svg">
<path style="transform: translateY(10px);" d="M69.5306 95.415V99.545H83.4256L73.9756 121H78.6306L87.9056 99.545V95.415H69.5306ZM89.5706 121.42C91.1106 121.42 92.4056 120.16 92.4056 118.655C92.4056 117.115 91.1106 115.855 89.5706 115.855C88.0306 115.855 86.7356 117.115 86.7356 118.655C86.7356 120.16 88.0306 121.42 89.5706 121.42ZM98.7666 102.94C95.8966 106.825 94.8816 109.065 94.8816 112.145C94.8816 117.395 99.0116 121.455 104.542 121.455C110.002 121.455 114.062 117.64 114.062 112.18C114.062 107 110.492 103.29 105.207 103.29C104.577 103.29 103.912 103.395 103.282 103.57L109.407 95.415H104.297L98.7666 102.94ZM99.4666 112.18C99.4666 109.1 101.497 106.965 104.542 106.965C107.482 106.965 109.547 109.1 109.547 112.18C109.547 115.295 107.447 117.465 104.542 117.465C101.532 117.465 99.4666 115.295 99.4666 112.18ZM119.561 121L129.571 95.45H125.301L115.326 121H119.561ZM136.881 99.44V121H141.186V95.415H131.281V99.44H136.881ZM145.542 108.26C145.542 116.17 149.567 121.455 156.357 121.455C163.147 121.455 167.207 116.17 167.207 108.26C167.207 100.315 162.902 94.925 156.357 94.925C149.812 94.925 145.542 100.315 145.542 108.26ZM149.952 108.26C149.952 102.205 152.332 98.88 156.357 98.88C160.417 98.88 162.797 102.205 162.797 108.26C162.797 114.175 160.417 117.5 156.357 117.5C152.332 117.5 149.952 114.175 149.952 108.26Z" fill="#fb8271"/>
<path d="M163.923 196.077C205.939 171.819 220.335 118.093 196.077 76.0769C171.819 34.0608 118.093 19.665 76.0772 43.923C34.0611 68.181 19.6653 121.907 43.9233 163.923C64.0547 198.792 104.481 214.638 141.667 205.155" stroke="#FFECE7" stroke-width="8" stroke-linecap="round"/>
<path d="M120 32C71.3989 32 32 71.3989 32 120C32 168.601 71.3989 208 120 208C152.778 208 181.371 190.079 196.514 163.5" stroke="#FF8271" stroke-width="8" stroke-linecap="round"/>
</svg>
