<svg width="240" height="240" viewBox="0 0 240 240" fill="none" xmlns="http://www.w3.org/2000/svg">
<path style="transform: translateY(10px);" d="M71.3374 102.94C68.4674 106.825 67.4524 109.065 67.4524 112.145C67.4524 117.395 71.5824 121.455 77.1124 121.455C82.5724 121.455 86.6324 117.64 86.6324 112.18C86.6324 107 83.0624 103.29 77.7774 103.29C77.1474 103.29 76.4824 103.395 75.8524 103.57L81.9774 95.415H76.8674L71.3374 102.94ZM72.0374 112.18C72.0374 109.1 74.0674 106.965 77.1124 106.965C80.0524 106.965 82.1174 109.1 82.1174 112.18C82.1174 115.295 80.0174 117.465 77.1124 117.465C74.1024 117.465 72.0374 115.295 72.0374 112.18ZM92.4246 121.42C93.9646 121.42 95.2596 120.16 95.2596 118.655C95.2596 117.115 93.9646 115.855 92.4246 115.855C90.8846 115.855 89.5896 117.115 89.5896 118.655C89.5896 120.16 90.8846 121.42 92.4246 121.42ZM113.27 113.475C116.14 109.59 117.155 107.35 117.155 104.27C117.155 99.02 113.025 94.96 107.495 94.96C102.035 94.96 97.9748 98.775 97.9748 104.235C97.9748 109.415 101.545 113.125 106.83 113.125C107.46 113.125 108.125 113.02 108.755 112.845L102.63 121H107.74L113.27 113.475ZM112.57 104.235C112.57 107.315 110.54 109.45 107.495 109.45C104.555 109.45 102.49 107.315 102.49 104.235C102.49 101.12 104.555 98.95 107.495 98.95C110.505 98.95 112.57 101.12 112.57 104.235ZM122.654 121L132.664 95.45H128.394L118.419 121H122.654ZM139.975 99.44V121H144.28V95.415H134.375V99.44H139.975ZM148.635 108.26C148.635 116.17 152.66 121.455 159.45 121.455C166.24 121.455 170.3 116.17 170.3 108.26C170.3 100.315 165.995 94.925 159.45 94.925C152.905 94.925 148.635 100.315 148.635 108.26ZM153.045 108.26C153.045 102.205 155.425 98.88 159.45 98.88C163.51 98.88 165.89 102.205 165.89 108.26C165.89 114.175 163.51 117.5 159.45 117.5C155.425 117.5 153.045 114.175 153.045 108.26Z" fill="#FF7171"/>
<path d="M163.923 196.077C205.939 171.819 220.335 118.093 196.077 76.0769C171.819 34.0608 118.093 19.665 76.0772 43.923C34.0611 68.181 19.6653 121.907 43.9233 163.923C64.0547 198.792 104.481 214.638 141.667 205.155" stroke="#FFECE7" stroke-width="8" stroke-linecap="round"/>
<path d="M120 32C71.3989 32 32 71.3989 32 120C32 168.601 71.3989 208 120 208C152.778 208 181.371 190.079 196.514 163.5" stroke="#FF7171" stroke-width="8" stroke-linecap="round"/>
</svg>
