<svg width="240" height="240" viewBox="0 0 240 240" fill="none" xmlns="http://www.w3.org/2000/svg">
<path style="transform: translateY(10px);" d="M72.4861 113.755C72.4861 118.41 76.3011 121.42 82.2161 121.42C88.1661 121.42 91.9811 118.375 91.9811 113.755C91.9811 110.675 90.2311 108.19 87.5361 107.245C89.8111 106.3 91.0711 104.375 91.0711 101.89C91.0711 97.725 87.5361 94.96 82.2861 94.96C77.0011 94.96 73.3961 97.76 73.3961 101.82C73.3961 104.305 74.6211 106.23 76.8611 107.245C74.2011 108.26 72.4861 110.71 72.4861 113.755ZM77.4561 102.205C77.4561 100.105 79.3111 98.775 82.2161 98.775C85.0861 98.775 86.9061 100.105 86.9061 102.24C86.9061 104.375 85.0861 105.705 82.2161 105.705C79.3111 105.705 77.4561 104.34 77.4561 102.205ZM76.8611 113.44C76.8611 110.955 78.9261 109.415 82.2161 109.415C85.5061 109.415 87.5711 110.955 87.5711 113.44C87.5711 115.925 85.5061 117.465 82.2511 117.465C78.9261 117.465 76.8611 115.925 76.8611 113.44ZM98.3079 121.42C99.8479 121.42 101.143 120.16 101.143 118.655C101.143 117.115 99.8479 115.855 98.3079 115.855C96.7679 115.855 95.4729 117.115 95.4729 118.655C95.4729 120.16 96.7679 121.42 98.3079 121.42ZM106.756 99.44V121H111.061V95.415H101.156V99.44H106.756ZM118.83 121L128.84 95.45H124.57L114.595 121H118.83ZM136.151 99.44V121H140.456V95.415H130.551V99.44H136.151ZM144.811 108.26C144.811 116.17 148.836 121.455 155.626 121.455C162.416 121.455 166.476 116.17 166.476 108.26C166.476 100.315 162.171 94.925 155.626 94.925C149.081 94.925 144.811 100.315 144.811 108.26ZM149.221 108.26C149.221 102.205 151.601 98.88 155.626 98.88C159.686 98.88 162.066 102.205 162.066 108.26C162.066 114.175 159.686 117.5 155.626 117.5C151.601 117.5 149.221 114.175 149.221 108.26Z" fill="#FF9171"/>
<path d="M163.923 196.077C205.939 171.819 220.335 118.093 196.077 76.0769C171.819 34.0608 118.093 19.665 76.0772 43.923C34.0611 68.181 19.6653 121.907 43.9233 163.923C64.0547 198.792 104.481 214.638 141.667 205.155" stroke="#FFECE7" stroke-width="8" stroke-linecap="round"/>
<path d="M120 32C71.3989 32 32 71.3989 32 120C32 168.601 71.3989 208 120 208C152.778 208 181.371 190.079 196.514 163.5" stroke="#FF9171" stroke-width="8" stroke-linecap="round"/>
</svg>
