<svg width="240" height="240" viewBox="0 0 240 240" fill="none" xmlns="http://www.w3.org/2000/svg">
<path d="M66.9148 113.755C66.9148 118.41 70.7298 121.42 76.6448 121.42C82.5948 121.42 86.4098 118.375 86.4098 113.755C86.4098 110.675 84.6598 108.19 81.9648 107.245C84.2398 106.3 85.4998 104.375 85.4998 101.89C85.4998 97.725 81.9648 94.96 76.7148 94.96C71.4298 94.96 67.8248 97.76 67.8248 101.82C67.8248 104.305 69.0498 106.23 71.2898 107.245C68.6298 108.26 66.9148 110.71 66.9148 113.755ZM71.8848 102.205C71.8848 100.105 73.7398 98.775 76.6448 98.775C79.5148 98.775 81.3348 100.105 81.3348 102.24C81.3348 104.375 79.5148 105.705 76.6448 105.705C73.7398 105.705 71.8848 104.34 71.8848 102.205ZM71.2898 113.44C71.2898 110.955 73.3548 109.415 76.6448 109.415C79.9348 109.415 81.9998 110.955 81.9998 113.44C81.9998 115.925 79.9348 117.465 76.6798 117.465C73.3548 117.465 71.2898 115.925 71.2898 113.44ZM92.7366 121.42C94.2766 121.42 95.5716 120.16 95.5716 118.655C95.5716 117.115 94.2766 115.855 92.7366 115.855C91.1966 115.855 89.9016 117.115 89.9016 118.655C89.9016 120.16 91.1966 121.42 92.7366 121.42ZM118.855 116.135V112.215H115.74V95.415H110.105L98.5196 112.215V116.135H111.505V121H115.74V116.135H118.855ZM103.28 112.215L111.505 100.245V112.215H103.28ZM124.402 121L134.412 95.45H130.142L120.167 121H124.402ZM141.722 99.44V121H146.027V95.415H136.122V99.44H141.722ZM150.382 108.26C150.382 116.17 154.407 121.455 161.197 121.455C167.987 121.455 172.047 116.17 172.047 108.26C172.047 100.315 167.742 94.925 161.197 94.925C154.652 94.925 150.382 100.315 150.382 108.26ZM154.792 108.26C154.792 102.205 157.172 98.88 161.197 98.88C165.257 98.88 167.637 102.205 167.637 108.26C167.637 114.175 165.257 117.5 161.197 117.5C157.172 117.5 154.792 114.175 154.792 108.26Z" style="transform: translateY(10px);" fill="#FFB628"/>
<path d="M163.923 196.077C205.939 171.819 220.335 118.093 196.077 76.0769C171.819 34.0608 118.093 19.665 76.0772 43.923C34.0611 68.181 19.6653 121.907 43.9233 163.923C64.0547 198.792 104.481 214.638 141.667 205.155" stroke="#FFEFD0" stroke-width="8" stroke-linecap="round"/>
<path d="M208 120C208 168.601 168.601 208 120 208C71.3989 208 32 168.601 32 120C32 71.3989 71.3989 32 120 32" stroke="#FFB628" stroke-width="8" stroke-linecap="round"/>
</svg>
